<?xml version="1.0" encoding="UTF-8" standalone="no"?>
<!DOCTYPE svg PUBLIC "-//W3C//DTD SVG 1.1//EN" "http://www.w3.org/Graphics/SVG/1.1/DTD/svg11.dtd">
<svg width="100%" height="100%" viewBox="0 0 400 87" version="1.1" xmlns="http://www.w3.org/2000/svg" xmlns:xlink="http://www.w3.org/1999/xlink" xml:space="preserve" xmlns:serif="http://www.serif.com/" style="fill-rule:evenodd;clip-rule:evenodd;stroke-linejoin:round;stroke-miterlimit:1.41421;">
    <g id="Layer_1-2" transform="matrix(1,0,0,1,-3.75,-84.97)">
        <g transform="matrix(0.395064,0,0,0.395064,7.5,85.8525)">
            <rect x="120.84" y="0" width="91.69" height="187.9" style="fill:rgb(253,185,23);"/>
        </g>
        <g transform="matrix(0.395064,0,0,0.395064,7.5,85.8525)">
            <path d="M0,0L93,0L0,96.52L0,0Z" style="fill:rgb(239,56,41);fill-rule:nonzero;"/>
        </g>
        <g transform="matrix(0.395064,0,0,0.395064,7.5,85.8525)">
            <path d="M0,215.75L0,123.36L96.72,215.75L0,215.75Z" style="fill:rgb(0,118,190);fill-rule:nonzero;"/>
        </g>
        <g transform="matrix(0.395064,0,0,0.395064,7.5,85.8525)">
            <path d="M27.18,105.25L92.71,39.72L94.65,172.72L27.18,105.25Z" style="fill:rgb(0,169,92);fill-rule:nonzero;"/>
        </g>
        <g transform="matrix(1.33152,0,0,1.33152,116.982,-195.313)">
            <path d="M1.14,226.83L5.14,226.83L5.14,239.63L5.47,239.63L18.56,226.83L24.16,226.83L9.88,240.5L25.14,256.43L19.29,256.43L5.49,241.63L5.16,241.63L5.16,256.43L1.16,256.43L1.14,226.83Z" style="fill:rgb(65,64,66);fill-rule:nonzero;"/>
        </g>
        <g transform="matrix(1.33152,0,0,1.33152,116.982,-195.313)">
            <path d="M26.32,246.52C26.31,245.125 26.589,243.742 27.14,242.46C27.67,241.228 28.431,240.108 29.38,239.16C33.505,235.069 40.255,235.069 44.38,239.16C45.329,240.108 46.089,241.228 46.62,242.46C47.171,243.742 47.45,245.125 47.44,246.52C47.457,249.289 46.357,251.951 44.39,253.9C43.413,254.851 42.262,255.604 41,256.12C38.348,257.207 35.372,257.207 32.72,256.12C31.472,255.6 30.335,254.847 29.37,253.9C27.403,251.951 26.303,249.289 26.32,246.52ZM30.32,246.52C30.31,247.466 30.466,248.407 30.78,249.3C31.061,250.104 31.504,250.843 32.08,251.47C32.642,252.076 33.323,252.559 34.08,252.89C35.826,253.588 37.774,253.588 39.52,252.89C40.277,252.559 40.958,252.076 41.52,251.47C42.096,250.842 42.538,250.104 42.82,249.3C43.433,247.498 43.433,245.542 42.82,243.74C42.538,242.936 42.096,242.198 41.52,241.57C40.958,240.964 40.277,240.481 39.52,240.15C37.774,239.452 35.826,239.452 34.08,240.15C33.323,240.481 32.642,240.964 32.08,241.57C31.504,242.198 31.062,242.936 30.78,243.74C30.469,244.633 30.317,245.574 30.33,246.52L30.32,246.52Z" style="fill:rgb(65,64,66);fill-rule:nonzero;"/>
        </g>
        <g transform="matrix(1.33152,0,0,1.33152,116.982,-195.313)">
            <path d="M49.73,236.61L54.08,236.61L60,251.79L65.69,236.61L69.69,236.61L61.91,256.43L57.8,256.43L49.73,236.61Z" style="fill:rgb(65,64,66);fill-rule:nonzero;"/>
        </g>
        <g transform="matrix(1.33152,0,0,1.33152,116.982,-195.313)">
            <path d="M73.11,239C74.172,238.021 75.425,237.272 76.79,236.8C78.132,236.322 79.545,236.075 80.97,236.07C82.238,236.042 83.502,236.224 84.71,236.61C85.657,236.916 86.532,237.413 87.28,238.07C87.926,238.653 88.432,239.374 88.76,240.18C89.079,240.971 89.242,241.817 89.24,242.67L89.24,254.71C89.24,255.323 89.283,255.88 89.37,256.38L86.07,256.38C85.983,255.373 85.94,254.373 85.94,253.38L85.86,253.38C85.14,254.555 84.099,255.499 82.86,256.1C81.601,256.654 80.235,256.924 78.86,256.89C77.969,256.893 77.083,256.765 76.23,256.51C75.43,256.28 74.683,255.896 74.03,255.38C73.404,254.878 72.898,254.243 72.55,253.52C71.727,251.652 71.842,249.499 72.86,247.73C73.455,246.845 74.259,246.12 75.2,245.62C76.285,245.044 77.457,244.649 78.67,244.45C80.07,244.205 81.489,244.085 82.91,244.09L85.67,244.09L85.67,243.25C85.667,242.736 85.569,242.228 85.38,241.75C85.181,241.242 84.881,240.78 84.5,240.39C84.09,239.957 83.592,239.616 83.04,239.39C82.373,239.138 81.663,239.015 80.95,239.03C80.31,239.021 79.672,239.092 79.05,239.24C78.542,239.368 78.046,239.542 77.57,239.76C77.141,239.959 76.736,240.204 76.36,240.49L75.36,241.28L73.11,239ZM83.73,246.86C82.818,246.859 81.907,246.906 81,247C80.13,247.082 79.274,247.27 78.45,247.56C77.743,247.802 77.1,248.202 76.57,248.73C76.079,249.246 75.815,249.938 75.84,250.65C75.739,251.637 76.185,252.604 77,253.17C77.945,253.717 79.029,253.978 80.12,253.92C81.025,253.947 81.924,253.769 82.75,253.4C83.424,253.069 84.016,252.591 84.48,252C84.935,251.454 85.276,250.821 85.48,250.14C85.668,249.49 85.766,248.817 85.77,248.14L85.77,246.9L83.73,246.86Z" style="fill:rgb(65,64,66);fill-rule:nonzero;"/>
        </g>
        <g transform="matrix(1.33152,0,0,1.33152,116.982,-195.313)">
            <path d="M94.73,236.61L98.49,236.61L98.49,239.66L98.57,239.66C99.088,238.555 99.956,237.651 101.04,237.09C102.284,236.41 103.683,236.066 105.1,236.09C106.031,236.087 106.957,236.236 107.84,236.53C108.697,236.81 109.482,237.275 110.14,237.89C110.829,238.553 111.365,239.358 111.71,240.25C112.125,241.338 112.326,242.496 112.3,243.66L112.3,256.41L108.54,256.41L108.54,244.72C108.558,243.917 108.429,243.117 108.16,242.36C107.947,241.763 107.606,241.22 107.16,240.77C106.753,240.372 106.26,240.071 105.72,239.89C105.175,239.709 104.604,239.618 104.03,239.62C103.29,239.615 102.554,239.744 101.86,240C101.187,240.251 100.584,240.659 100.1,241.19C99.567,241.789 99.168,242.494 98.93,243.26C98.629,244.231 98.487,245.244 98.51,246.26L98.51,256.46L94.73,256.46L94.73,236.61Z" style="fill:rgb(65,64,66);fill-rule:nonzero;"/>
        </g>
        <g transform="matrix(1.33152,0,0,1.33152,116.982,-195.313)">
            <path d="M130.56,226.83L134.56,226.83L134.56,252.67L148.15,252.67L148.15,256.43L130.55,256.43L130.56,226.83Z" style="fill:rgb(65,64,66);fill-rule:nonzero;"/>
        </g>
        <g transform="matrix(1.33152,0,0,1.33152,116.982,-195.313)">
            <path d="M151.39,239C152.452,238.021 153.705,237.272 155.07,236.8C156.412,236.322 157.825,236.075 159.25,236.07C160.518,236.042 161.782,236.224 162.99,236.61C163.937,236.916 164.812,237.413 165.56,238.07C166.206,238.653 166.712,239.374 167.04,240.18C167.359,240.971 167.522,241.817 167.52,242.67L167.52,254.71C167.52,255.323 167.563,255.88 167.65,256.38L164.3,256.38C164.213,255.373 164.17,254.373 164.17,253.38L164.09,253.38C163.37,254.555 162.329,255.499 161.09,256.1C159.831,256.654 158.465,256.924 157.09,256.89C156.199,256.893 155.313,256.765 154.46,256.51C153.66,256.28 152.913,255.896 152.26,255.38C151.634,254.878 151.128,254.243 150.78,253.52C149.957,251.652 150.072,249.499 151.09,247.73C151.685,246.845 152.489,246.12 153.43,245.62C154.549,245.051 155.756,244.672 157,244.5C158.4,244.255 159.819,244.135 161.24,244.14L164,244.14L164,243.3C163.997,242.786 163.899,242.278 163.71,241.8C163.511,241.292 163.211,240.83 162.83,240.44C162.42,240.007 161.922,239.666 161.37,239.44C160.703,239.188 159.993,239.065 159.28,239.08C158.64,239.071 158.002,239.142 157.38,239.29C156.872,239.418 156.376,239.592 155.9,239.81C155.471,240.009 155.066,240.254 154.69,240.54L153.69,241.33L151.39,239ZM162,246.9C161.085,246.902 160.17,246.952 159.26,247.05C158.39,247.132 157.534,247.32 156.71,247.61C156.003,247.852 155.36,248.252 154.83,248.78C154.339,249.296 154.075,249.988 154.1,250.7C154.016,251.668 154.455,252.611 155.25,253.17C156.195,253.717 157.279,253.978 158.37,253.92C159.275,253.947 160.174,253.769 161,253.4C161.681,253.085 162.283,252.62 162.76,252.04C163.215,251.494 163.556,250.861 163.76,250.18C163.948,249.53 164.046,248.857 164.05,248.18L164.05,246.9L162,246.9Z" style="fill:rgb(65,64,66);fill-rule:nonzero;"/>
        </g>
        <g transform="matrix(1.33152,0,0,1.33152,116.982,-195.313)">
            <path d="M173,224.82L176.76,224.82L176.76,239.46L176.84,239.46C177.554,238.388 178.556,237.539 179.73,237.01C180.978,236.413 182.346,236.105 183.73,236.11C185.156,236.088 186.571,236.357 187.89,236.9C189.092,237.403 190.175,238.153 191.07,239.1C191.95,240.056 192.63,241.178 193.07,242.4C193.553,243.719 193.793,245.115 193.78,246.52C193.794,247.918 193.554,249.308 193.07,250.62C192.624,251.839 191.945,252.96 191.07,253.92C190.18,254.878 189.096,255.635 187.89,256.14C186.571,256.683 185.156,256.952 183.73,256.93C182.378,256.926 181.043,256.626 179.82,256.05C178.612,255.519 177.573,254.664 176.82,253.58L176.74,253.58L176.74,256.42L173,256.42L173,224.82ZM183.29,253.42C184.223,253.435 185.149,253.258 186.01,252.9C186.767,252.569 187.448,252.086 188.01,251.48C188.586,250.852 189.028,250.114 189.31,249.31C189.923,247.508 189.923,245.552 189.31,243.75C189.028,242.946 188.586,242.208 188.01,241.58C187.448,240.974 186.767,240.491 186.01,240.16C184.264,239.462 182.316,239.462 180.57,240.16C179.813,240.491 179.132,240.974 178.57,241.58C177.994,242.208 177.552,242.946 177.27,243.75C176.657,245.552 176.657,247.508 177.27,249.31C177.551,250.114 177.994,250.853 178.57,251.48C179.132,252.086 179.813,252.569 180.57,252.9C181.431,253.258 182.357,253.435 183.29,253.42Z" style="fill:rgb(65,64,66);fill-rule:nonzero;"/>
        </g>
        <g transform="matrix(1.33152,0,0,1.33152,116.982,-195.313)">
            <path d="M209.09,241.59C208.633,241.024 208.073,240.549 207.44,240.19C206.703,239.796 205.875,239.603 205.04,239.63C204.231,239.608 203.43,239.802 202.72,240.19C202.096,240.499 201.706,241.144 201.72,241.84C201.699,242.371 201.902,242.887 202.28,243.26C202.67,243.632 203.124,243.93 203.62,244.14C204.15,244.367 204.703,244.535 205.27,244.64L206.78,244.93C207.555,245.115 208.317,245.352 209.06,245.64C209.731,245.896 210.353,246.265 210.9,246.73C211.417,247.179 211.83,247.735 212.11,248.36C212.422,249.1 212.572,249.898 212.55,250.7C212.578,251.7 212.332,252.689 211.84,253.56C211.38,254.337 210.751,255 210,255.5C209.217,256.016 208.346,256.386 207.43,256.59C206.476,256.811 205.499,256.921 204.52,256.92C203.042,256.951 201.572,256.696 200.19,256.17C198.846,255.581 197.694,254.624 196.87,253.41L199.71,251.07C200.314,251.686 200.985,252.232 201.71,252.7C202.543,253.196 203.501,253.442 204.47,253.41C204.954,253.408 205.436,253.357 205.91,253.26C206.365,253.175 206.803,253.02 207.21,252.8C207.57,252.606 207.884,252.336 208.13,252.01C208.369,251.69 208.496,251.3 208.49,250.9C208.508,250.389 208.321,249.892 207.97,249.52C207.616,249.152 207.19,248.859 206.72,248.66C206.219,248.447 205.701,248.28 205.17,248.16L203.73,247.85C202.923,247.657 202.157,247.433 201.43,247.18C200.742,246.948 200.094,246.611 199.51,246.18C198.949,245.758 198.49,245.215 198.17,244.59C197.814,243.849 197.643,243.032 197.67,242.21C197.648,241.269 197.872,240.338 198.32,239.51C198.741,238.757 199.325,238.108 200.03,237.61C200.768,237.095 201.591,236.713 202.46,236.48C203.352,236.23 204.274,236.102 205.2,236.1C206.52,236.095 207.828,236.35 209.05,236.85C210.273,237.347 211.301,238.228 211.98,239.36L209.09,241.59Z" style="fill:rgb(65,64,66);fill-rule:nonzero;"/>
        </g>
    </g>
</svg>
